# xmcd CD database file
#
# Track frame offsets:
#	150
#	18130
#	38337
#	55585
#	71188
#	89481
#	107097
#	133456
#	154087
#	193481
#	211691
#	249548
#
# Disc length: 3576 seconds
#
# Revision: 0
# Processed by: cddbd v1.5.1PL0 Copyright (c) Steve Scherf et al.
# Submitted via: CDex 1.51
#
DISCID=a50df60c
DTITLE=Sérgio Duarte and Entidade Joe - Destilado 'N' Blues
DYEAR=2004
DGENRE=Blues
TTITLE0=Destilado 'N' Blues
TTITLE1=Fuga Joe
TTITLE2=Como Se Não Fosse Nada
TTITLE3=Golpe de Virada
TTITLE4=Amnésia
TTITLE5=Menino Mau
TTITLE6=Não Me Lembro
TTITLE7=Cromatic Sucker
TTITLE8=Tristezas
TTITLE9=Só Amor
TTITLE10=Blues, Sombra e Água Fresca
TTITLE11=Blues Para Você
EXTD=YEAR: 2004
EXTT0=
EXTT1=
EXTT2=
EXTT3=
EXTT4=
EXTT5=
EXTT6=
EXTT7=
EXTT8=
EXTT9=
EXTT10=
EXTT11=
PLAYORDER=
